<mxfile host="app.diagrams.net" agent="Mozilla/5.0 (Windows NT 10.0; Win64; x64) AppleWebKit/537.36 (KHTML, like Gecko) Chrome/132.0.0.0 Safari/537.36 OPR/117.0.0.0 (Edition Yx GX 03)" version="26.2.8">
  <diagram name="Страница — 1" id="40IGKY1k4PeIV6yNxo8w">
    <mxGraphModel dx="2312" dy="2444" grid="1" gridSize="10" guides="1" tooltips="1" connect="1" arrows="1" fold="1" page="1" pageScale="1" pageWidth="827" pageHeight="1169" math="0" shadow="0">
      <root>
        <mxCell id="0" />
        <mxCell id="1" parent="0" />
        <mxCell id="0fIE7TMav8fYW0kpcS7R-51" value="" style="endArrow=none;html=1;rounded=0;" edge="1" parent="1">
          <mxGeometry width="50" height="50" relative="1" as="geometry">
            <mxPoint x="32" y="810" as="sourcePoint" />
            <mxPoint x="32" y="700" as="targetPoint" />
          </mxGeometry>
        </mxCell>
        <mxCell id="0fIE7TMav8fYW0kpcS7R-49" value="" style="endArrow=none;html=1;rounded=0;" edge="1" parent="1">
          <mxGeometry width="50" height="50" relative="1" as="geometry">
            <mxPoint x="630" y="110" as="sourcePoint" />
            <mxPoint x="720" y="110" as="targetPoint" />
          </mxGeometry>
        </mxCell>
        <mxCell id="0fIE7TMav8fYW0kpcS7R-50" value="" style="endArrow=none;html=1;rounded=0;" edge="1" parent="1">
          <mxGeometry width="50" height="50" relative="1" as="geometry">
            <mxPoint x="630" y="250" as="sourcePoint" />
            <mxPoint x="720" y="250" as="targetPoint" />
          </mxGeometry>
        </mxCell>
        <mxCell id="0fIE7TMav8fYW0kpcS7R-46" value="" style="endArrow=none;html=1;rounded=0;" edge="1" parent="1">
          <mxGeometry width="50" height="50" relative="1" as="geometry">
            <mxPoint x="630" y="360" as="sourcePoint" />
            <mxPoint x="720" y="360" as="targetPoint" />
          </mxGeometry>
        </mxCell>
        <mxCell id="0fIE7TMav8fYW0kpcS7R-47" value="" style="endArrow=none;html=1;rounded=0;" edge="1" parent="1">
          <mxGeometry width="50" height="50" relative="1" as="geometry">
            <mxPoint x="630" y="470" as="sourcePoint" />
            <mxPoint x="720" y="470" as="targetPoint" />
          </mxGeometry>
        </mxCell>
        <mxCell id="0fIE7TMav8fYW0kpcS7R-48" value="" style="endArrow=none;html=1;rounded=0;" edge="1" parent="1">
          <mxGeometry width="50" height="50" relative="1" as="geometry">
            <mxPoint x="630" y="610" as="sourcePoint" />
            <mxPoint x="720" y="610" as="targetPoint" />
          </mxGeometry>
        </mxCell>
        <mxCell id="0fIE7TMav8fYW0kpcS7R-45" value="" style="endArrow=none;html=1;rounded=0;" edge="1" parent="1">
          <mxGeometry width="50" height="50" relative="1" as="geometry">
            <mxPoint x="630" y="-10" as="sourcePoint" />
            <mxPoint x="720" y="-10" as="targetPoint" />
          </mxGeometry>
        </mxCell>
        <mxCell id="0fIE7TMav8fYW0kpcS7R-44" value="" style="endArrow=none;html=1;rounded=0;" edge="1" parent="1">
          <mxGeometry width="50" height="50" relative="1" as="geometry">
            <mxPoint x="643" y="-377" as="sourcePoint" />
            <mxPoint x="640" y="-710" as="targetPoint" />
          </mxGeometry>
        </mxCell>
        <mxCell id="0fIE7TMav8fYW0kpcS7R-43" value="" style="endArrow=none;html=1;rounded=0;" edge="1" parent="1">
          <mxGeometry width="50" height="50" relative="1" as="geometry">
            <mxPoint x="403" y="-381" as="sourcePoint" />
            <mxPoint x="400" y="-710" as="targetPoint" />
          </mxGeometry>
        </mxCell>
        <mxCell id="0fIE7TMav8fYW0kpcS7R-42" value="" style="endArrow=none;html=1;rounded=0;" edge="1" parent="1">
          <mxGeometry width="50" height="50" relative="1" as="geometry">
            <mxPoint x="123" y="-381" as="sourcePoint" />
            <mxPoint x="120" y="-710" as="targetPoint" />
          </mxGeometry>
        </mxCell>
        <mxCell id="0fIE7TMav8fYW0kpcS7R-29" value="" style="endArrow=none;html=1;rounded=0;" edge="1" parent="1">
          <mxGeometry width="50" height="50" relative="1" as="geometry">
            <mxPoint x="30" y="363" as="sourcePoint" />
            <mxPoint x="120" y="363" as="targetPoint" />
          </mxGeometry>
        </mxCell>
        <mxCell id="0fIE7TMav8fYW0kpcS7R-30" value="" style="endArrow=none;html=1;rounded=0;" edge="1" parent="1">
          <mxGeometry width="50" height="50" relative="1" as="geometry">
            <mxPoint x="30" y="473" as="sourcePoint" />
            <mxPoint x="120" y="473" as="targetPoint" />
          </mxGeometry>
        </mxCell>
        <mxCell id="0fIE7TMav8fYW0kpcS7R-31" value="" style="endArrow=none;html=1;rounded=0;" edge="1" parent="1">
          <mxGeometry width="50" height="50" relative="1" as="geometry">
            <mxPoint x="30" y="613" as="sourcePoint" />
            <mxPoint x="120" y="613" as="targetPoint" />
          </mxGeometry>
        </mxCell>
        <mxCell id="0fIE7TMav8fYW0kpcS7R-32" value="" style="endArrow=none;html=1;rounded=0;" edge="1" parent="1">
          <mxGeometry width="50" height="50" relative="1" as="geometry">
            <mxPoint x="32" y="673" as="sourcePoint" />
            <mxPoint x="30" y="363" as="targetPoint" />
          </mxGeometry>
        </mxCell>
        <mxCell id="0fIE7TMav8fYW0kpcS7R-24" value="" style="endArrow=none;html=1;rounded=0;" edge="1" parent="1">
          <mxGeometry width="50" height="50" relative="1" as="geometry">
            <mxPoint x="30" y="-10" as="sourcePoint" />
            <mxPoint x="120" y="-10" as="targetPoint" />
          </mxGeometry>
        </mxCell>
        <mxCell id="0fIE7TMav8fYW0kpcS7R-25" value="" style="endArrow=none;html=1;rounded=0;" edge="1" parent="1">
          <mxGeometry width="50" height="50" relative="1" as="geometry">
            <mxPoint x="30" y="100" as="sourcePoint" />
            <mxPoint x="120" y="100" as="targetPoint" />
          </mxGeometry>
        </mxCell>
        <mxCell id="0fIE7TMav8fYW0kpcS7R-26" value="" style="endArrow=none;html=1;rounded=0;" edge="1" parent="1">
          <mxGeometry width="50" height="50" relative="1" as="geometry">
            <mxPoint x="30" y="240" as="sourcePoint" />
            <mxPoint x="120" y="240" as="targetPoint" />
          </mxGeometry>
        </mxCell>
        <mxCell id="0fIE7TMav8fYW0kpcS7R-1" value="" style="verticalLabelPosition=bottom;sketch=0;aspect=fixed;html=1;verticalAlign=top;strokeColor=none;align=center;outlineConnect=0;shape=mxgraph.citrix.desktop;" vertex="1" parent="1">
          <mxGeometry x="90" y="560" width="89" height="98" as="geometry" />
        </mxCell>
        <mxCell id="0fIE7TMav8fYW0kpcS7R-2" value="" style="verticalLabelPosition=bottom;sketch=0;aspect=fixed;html=1;verticalAlign=top;strokeColor=none;align=center;outlineConnect=0;shape=mxgraph.citrix.desktop;" vertex="1" parent="1">
          <mxGeometry x="90" y="440" width="89" height="98" as="geometry" />
        </mxCell>
        <mxCell id="0fIE7TMav8fYW0kpcS7R-3" value="" style="verticalLabelPosition=bottom;sketch=0;aspect=fixed;html=1;verticalAlign=top;strokeColor=none;align=center;outlineConnect=0;shape=mxgraph.citrix.desktop;" vertex="1" parent="1">
          <mxGeometry x="90" y="310" width="89" height="98" as="geometry" />
        </mxCell>
        <mxCell id="0fIE7TMav8fYW0kpcS7R-5" value="" style="verticalLabelPosition=bottom;sketch=0;aspect=fixed;html=1;verticalAlign=top;strokeColor=none;align=center;outlineConnect=0;shape=mxgraph.citrix.desktop;" vertex="1" parent="1">
          <mxGeometry x="90" y="180" width="89" height="98" as="geometry" />
        </mxCell>
        <mxCell id="0fIE7TMav8fYW0kpcS7R-6" value="" style="verticalLabelPosition=bottom;sketch=0;aspect=fixed;html=1;verticalAlign=top;strokeColor=none;align=center;outlineConnect=0;shape=mxgraph.citrix.desktop;" vertex="1" parent="1">
          <mxGeometry x="90" y="60" width="89" height="98" as="geometry" />
        </mxCell>
        <mxCell id="0fIE7TMav8fYW0kpcS7R-7" value="" style="verticalLabelPosition=bottom;sketch=0;aspect=fixed;html=1;verticalAlign=top;strokeColor=none;align=center;outlineConnect=0;shape=mxgraph.citrix.desktop;" vertex="1" parent="1">
          <mxGeometry x="90" y="-70" width="89" height="98" as="geometry" />
        </mxCell>
        <mxCell id="0fIE7TMav8fYW0kpcS7R-8" value="" style="verticalLabelPosition=bottom;sketch=0;aspect=fixed;html=1;verticalAlign=top;strokeColor=none;align=center;outlineConnect=0;shape=mxgraph.citrix.desktop;" vertex="1" parent="1">
          <mxGeometry x="600" y="560" width="89" height="98" as="geometry" />
        </mxCell>
        <mxCell id="0fIE7TMav8fYW0kpcS7R-9" value="" style="verticalLabelPosition=bottom;sketch=0;aspect=fixed;html=1;verticalAlign=top;strokeColor=none;align=center;outlineConnect=0;shape=mxgraph.citrix.desktop;" vertex="1" parent="1">
          <mxGeometry x="600" y="440" width="89" height="98" as="geometry" />
        </mxCell>
        <mxCell id="0fIE7TMav8fYW0kpcS7R-10" value="" style="verticalLabelPosition=bottom;sketch=0;aspect=fixed;html=1;verticalAlign=top;strokeColor=none;align=center;outlineConnect=0;shape=mxgraph.citrix.desktop;" vertex="1" parent="1">
          <mxGeometry x="600" y="310" width="89" height="98" as="geometry" />
        </mxCell>
        <mxCell id="0fIE7TMav8fYW0kpcS7R-11" value="" style="verticalLabelPosition=bottom;sketch=0;aspect=fixed;html=1;verticalAlign=top;strokeColor=none;align=center;outlineConnect=0;shape=mxgraph.citrix.desktop;" vertex="1" parent="1">
          <mxGeometry x="600" y="180" width="89" height="98" as="geometry" />
        </mxCell>
        <mxCell id="0fIE7TMav8fYW0kpcS7R-12" value="" style="verticalLabelPosition=bottom;sketch=0;aspect=fixed;html=1;verticalAlign=top;strokeColor=none;align=center;outlineConnect=0;shape=mxgraph.citrix.desktop;" vertex="1" parent="1">
          <mxGeometry x="600" y="60" width="89" height="98" as="geometry" />
        </mxCell>
        <mxCell id="0fIE7TMav8fYW0kpcS7R-13" value="" style="verticalLabelPosition=bottom;sketch=0;aspect=fixed;html=1;verticalAlign=top;strokeColor=none;align=center;outlineConnect=0;shape=mxgraph.citrix.desktop;" vertex="1" parent="1">
          <mxGeometry x="600" y="-70" width="89" height="98" as="geometry" />
        </mxCell>
        <mxCell id="0fIE7TMav8fYW0kpcS7R-14" value="" style="verticalLabelPosition=bottom;sketch=0;aspect=fixed;html=1;verticalAlign=top;strokeColor=none;align=center;outlineConnect=0;shape=mxgraph.citrix.desktop;" vertex="1" parent="1">
          <mxGeometry x="90" y="-400" width="89" height="98" as="geometry" />
        </mxCell>
        <mxCell id="0fIE7TMav8fYW0kpcS7R-15" value="" style="verticalLabelPosition=bottom;sketch=0;aspect=fixed;html=1;verticalAlign=top;strokeColor=none;align=center;outlineConnect=0;shape=mxgraph.citrix.desktop;" vertex="1" parent="1">
          <mxGeometry x="90" y="-520" width="89" height="98" as="geometry" />
        </mxCell>
        <mxCell id="0fIE7TMav8fYW0kpcS7R-16" value="" style="verticalLabelPosition=bottom;sketch=0;aspect=fixed;html=1;verticalAlign=top;strokeColor=none;align=center;outlineConnect=0;shape=mxgraph.citrix.desktop;" vertex="1" parent="1">
          <mxGeometry x="90" y="-650" width="89" height="98" as="geometry" />
        </mxCell>
        <mxCell id="0fIE7TMav8fYW0kpcS7R-17" value="" style="verticalLabelPosition=bottom;sketch=0;aspect=fixed;html=1;verticalAlign=top;strokeColor=none;align=center;outlineConnect=0;shape=mxgraph.citrix.desktop;" vertex="1" parent="1">
          <mxGeometry x="360" y="-400" width="89" height="98" as="geometry" />
        </mxCell>
        <mxCell id="0fIE7TMav8fYW0kpcS7R-18" value="" style="verticalLabelPosition=bottom;sketch=0;aspect=fixed;html=1;verticalAlign=top;strokeColor=none;align=center;outlineConnect=0;shape=mxgraph.citrix.desktop;" vertex="1" parent="1">
          <mxGeometry x="360" y="-520" width="89" height="98" as="geometry" />
        </mxCell>
        <mxCell id="0fIE7TMav8fYW0kpcS7R-19" value="" style="verticalLabelPosition=bottom;sketch=0;aspect=fixed;html=1;verticalAlign=top;strokeColor=none;align=center;outlineConnect=0;shape=mxgraph.citrix.desktop;" vertex="1" parent="1">
          <mxGeometry x="360" y="-650" width="89" height="98" as="geometry" />
        </mxCell>
        <mxCell id="0fIE7TMav8fYW0kpcS7R-20" value="" style="verticalLabelPosition=bottom;sketch=0;aspect=fixed;html=1;verticalAlign=top;strokeColor=none;align=center;outlineConnect=0;shape=mxgraph.citrix.desktop;" vertex="1" parent="1">
          <mxGeometry x="600" y="-400" width="89" height="98" as="geometry" />
        </mxCell>
        <mxCell id="0fIE7TMav8fYW0kpcS7R-21" value="" style="verticalLabelPosition=bottom;sketch=0;aspect=fixed;html=1;verticalAlign=top;strokeColor=none;align=center;outlineConnect=0;shape=mxgraph.citrix.desktop;" vertex="1" parent="1">
          <mxGeometry x="600" y="-520" width="89" height="98" as="geometry" />
        </mxCell>
        <mxCell id="0fIE7TMav8fYW0kpcS7R-22" value="" style="verticalLabelPosition=bottom;sketch=0;aspect=fixed;html=1;verticalAlign=top;strokeColor=none;align=center;outlineConnect=0;shape=mxgraph.citrix.desktop;" vertex="1" parent="1">
          <mxGeometry x="600" y="-650" width="89" height="98" as="geometry" />
        </mxCell>
        <mxCell id="0fIE7TMav8fYW0kpcS7R-23" value="" style="endArrow=none;html=1;rounded=0;" edge="1" parent="1">
          <mxGeometry width="50" height="50" relative="1" as="geometry">
            <mxPoint x="30" y="240" as="sourcePoint" />
            <mxPoint x="30" y="-200" as="targetPoint" />
          </mxGeometry>
        </mxCell>
        <mxCell id="0fIE7TMav8fYW0kpcS7R-28" value="" style="verticalLabelPosition=bottom;sketch=0;aspect=fixed;html=1;verticalAlign=top;strokeColor=none;align=center;outlineConnect=0;shape=mxgraph.citrix.router;" vertex="1" parent="1">
          <mxGeometry x="10" y="670" width="55" height="36.5" as="geometry" />
        </mxCell>
        <mxCell id="0fIE7TMav8fYW0kpcS7R-38" value="" style="endArrow=none;html=1;rounded=0;" edge="1" parent="1">
          <mxGeometry width="50" height="50" relative="1" as="geometry">
            <mxPoint x="720" y="-200" as="sourcePoint" />
            <mxPoint x="28" y="-202" as="targetPoint" />
          </mxGeometry>
        </mxCell>
        <mxCell id="0fIE7TMav8fYW0kpcS7R-39" value="" style="endArrow=none;html=1;rounded=0;" edge="1" parent="1">
          <mxGeometry width="50" height="50" relative="1" as="geometry">
            <mxPoint x="720" y="640" as="sourcePoint" />
            <mxPoint x="720" y="-710" as="targetPoint" />
          </mxGeometry>
        </mxCell>
        <mxCell id="0fIE7TMav8fYW0kpcS7R-41" value="" style="endArrow=none;html=1;rounded=0;" edge="1" parent="1">
          <mxGeometry width="50" height="50" relative="1" as="geometry">
            <mxPoint x="120" y="-710" as="sourcePoint" />
            <mxPoint x="720" y="-710" as="targetPoint" />
          </mxGeometry>
        </mxCell>
        <mxCell id="0fIE7TMav8fYW0kpcS7R-52" value="" style="endArrow=none;html=1;rounded=0;" edge="1" parent="1">
          <mxGeometry width="50" height="50" relative="1" as="geometry">
            <mxPoint x="30" y="810" as="sourcePoint" />
            <mxPoint x="760" y="810" as="targetPoint" />
          </mxGeometry>
        </mxCell>
        <mxCell id="0fIE7TMav8fYW0kpcS7R-53" value="" style="endArrow=none;html=1;rounded=0;" edge="1" parent="1">
          <mxGeometry width="50" height="50" relative="1" as="geometry">
            <mxPoint x="720" y="760" as="sourcePoint" />
            <mxPoint x="720" y="640" as="targetPoint" />
          </mxGeometry>
        </mxCell>
        <mxCell id="0fIE7TMav8fYW0kpcS7R-54" value="" style="endArrow=none;html=1;rounded=0;" edge="1" parent="1">
          <mxGeometry width="50" height="50" relative="1" as="geometry">
            <mxPoint x="720" y="760" as="sourcePoint" />
            <mxPoint x="760" y="760" as="targetPoint" />
          </mxGeometry>
        </mxCell>
      </root>
    </mxGraphModel>
  </diagram>
</mxfile>
